<svg id="Layer_1" data-name="Layer 1" xmlns="http://www.w3.org/2000/svg" viewBox="0 0 125 33"><defs><style>.cls-1{fill:#231f20;}</style></defs><path class="cls-1" d="M14.44,1.74a9,9,0,0,0-3,.45A5.92,5.92,0,0,0,9.31,3.45,5.18,5.18,0,0,0,8,5.33a6.45,6.45,0,0,0-.44,2.4,8.9,8.9,0,0,0,.33,2.5A5.54,5.54,0,0,0,9,12.3,8.67,8.67,0,0,0,11.19,14a18.5,18.5,0,0,0,3.43,1.48,33.73,33.73,0,0,1,4.82,2,12.85,12.85,0,0,1,3.07,2.14,6.27,6.27,0,0,1,1.59,2.46,9.09,9.09,0,0,1,.46,3,5.77,5.77,0,0,1-.82,3,7,7,0,0,1-2.34,2.32,12.28,12.28,0,0,1-3.7,1.49,21.07,21.07,0,0,1-4.93.52c-3.84,0-6.76-1-8.74-2.92s-3-4.67-3-8.18h5.4a2.43,2.43,0,0,0-1.4,1.07,4.37,4.37,0,0,0-.45,2.16,7.32,7.32,0,0,0,.47,2.61A6,6,0,0,0,6.5,29.32a6.64,6.64,0,0,0,2.41,1.47,10,10,0,0,0,3.46.54,7.48,7.48,0,0,0,5.21-1.75,6.65,6.65,0,0,0,1.94-5.17,9.14,9.14,0,0,0-.46-3,6.29,6.29,0,0,0-1.47-2.35A10.49,10.49,0,0,0,15,17.17a28.57,28.57,0,0,0-3.86-1.68,37.26,37.26,0,0,1-4.05-1.65,12.42,12.42,0,0,1-2.68-1.73,5.6,5.6,0,0,1-1.5-2,5.78,5.78,0,0,1-.48-2.38,5.86,5.86,0,0,1,.86-3.15A6.86,6.86,0,0,1,5.66,2.32,11.87,11.87,0,0,1,9.29,1a21.48,21.48,0,0,1,4.6-.4,12.67,12.67,0,0,1,4.34.78,9.14,9.14,0,0,1,3.17,2,8.33,8.33,0,0,1,1.94,2.95A9.79,9.79,0,0,1,24,9.94h-5.4a2.11,2.11,0,0,0,1.45-1.22,4.91,4.91,0,0,0,.4-2,4.15,4.15,0,0,0-.49-2,4.92,4.92,0,0,0-1.32-1.58,6.46,6.46,0,0,0-1.93-1A7.16,7.16,0,0,0,14.44,1.74Z"/><path class="cls-1" d="M33.3,16.79c.09,2.56.22,5,.38,7.42s.34,4.45.56,6.22a32.14,32.14,0,0,0,4.28-.4,20.68,20.68,0,0,0,3.61-.93,15.92,15.92,0,0,0,3-1.45,19.48,19.48,0,0,0,2.62-1.94v5.77H30c-.29-1.21-.55-2.61-.78-4.19s-.43-3.28-.6-5.08-.31-3.65-.42-5.56S28,12.86,28,11s-.09-3.62-.09-5.32,0-3.22.07-4.6H47.77V6.86a19.56,19.56,0,0,0-2.74-2,15.84,15.84,0,0,0-3.25-1.48,23.46,23.46,0,0,0-3.88-.93,30,30,0,0,0-4.64-.33q-.1,2.84-.11,6.39t.11,7.29H37A22.16,22.16,0,0,0,43.12,15a18.33,18.33,0,0,0,4.65-2v6.49a18,18,0,0,0-4.65-2A23,23,0,0,0,37,16.79Z"/><path class="cls-1" d="M61.47,16.79a23,23,0,0,0-6.12.76,18,18,0,0,0-4.65,2V13a18.33,18.33,0,0,0,4.65,2,22.16,22.16,0,0,0,6.12.78h3.74q.11-3.74.11-7.29T65.21,2.1a30,30,0,0,0-4.64.33,23.46,23.46,0,0,0-3.88.93,15.84,15.84,0,0,0-3.25,1.48,19.56,19.56,0,0,0-2.74,2V1.09H70.54c0,1.38.07,2.91.07,4.6s0,3.47-.09,5.32-.14,3.73-.25,5.64-.25,3.76-.42,5.56-.37,3.5-.6,5.08-.49,3-.78,4.19H50.7V25.71a20,20,0,0,0,2.61,1.94,16.32,16.32,0,0,0,3,1.45A20.68,20.68,0,0,0,60,30a32.14,32.14,0,0,0,4.28.4q.33-2.66.56-6.22c.16-2.38.29-4.86.38-7.42Z"/><path class="cls-1" d="M96.65,1.09q0,3.3.11,7t.07,7.29A33.65,33.65,0,0,1,96.2,22,15,15,0,0,1,94,27.44a11,11,0,0,1-4.2,3.64,14.87,14.87,0,0,1-6.71,1.34,9.33,9.33,0,0,1-4.44-1,8.78,8.78,0,0,1-3.11-2.7,11.81,11.81,0,0,1-1.81-4.1,21.51,21.51,0,0,1-.58-5.16c0-3.78.12-7.25.36-10.43s.52-5.83.84-8h5.47c-.43.92-.92,2.06-1.45,3.43A46.46,46.46,0,0,0,76.9,9c-.44,1.63-.82,3.36-1.14,5.17a32.24,32.24,0,0,0-.47,5.44,25.73,25.73,0,0,0,.42,4.88,11.09,11.09,0,0,0,1.34,3.68,6.51,6.51,0,0,0,2.41,2.34,7.49,7.49,0,0,0,3.63.81A6.59,6.59,0,0,0,87,30.21a8,8,0,0,0,2.54-3.1,16.48,16.48,0,0,0,1.38-4.7,38.75,38.75,0,0,0,.42-5.91c0-2.59,0-5.21-.08-7.89s-.08-5.18-.11-7.52Z"/><path class="cls-1" d="M103,31.48c-.29-1.21-.55-2.61-.78-4.19s-.43-3.28-.6-5.08-.31-3.65-.42-5.56S101,12.86,101,11s-.09-3.62-.09-5.32,0-3.22.07-4.6h5.48q1.84,2,3.53,4a51.21,51.21,0,0,1,6,9.1,52.23,52.23,0,0,1,2.4,5.38c.07-1.62.13-3.27.18-5s.08-3.34.09-4.94,0-3.12,0-4.58-.07-2.8-.14-4h5.4q.08,2,.09,4.59c0,1.7,0,3.48-.07,5.33s-.15,3.73-.27,5.64-.27,3.76-.44,5.56-.37,3.5-.6,5.08-.49,3-.78,4.19h-4.35a58.09,58.09,0,0,0-1.45-7.8,70.61,70.61,0,0,0-2.48-7.79,62,62,0,0,0-3.32-7.22,44.64,44.64,0,0,0-3.92-6.06q-.08,2.1-.09,4.59c0,1.66,0,3.37,0,5.13s.07,3.55.14,5.35.16,3.54.26,5.2.21,3.24.34,4.72.29,2.77.46,3.88Z"/></svg>