<svg xmlns="http://www.w3.org/2000/svg" viewBox="0 0 127.35 33"><defs><style>.cls-1{fill:#eee;}</style></defs><g id="레이어_2" data-name="레이어 2"><g id="Layer_1" data-name="Layer 1"><path class="cls-1" d="M13.87,1.21a9.14,9.14,0,0,0-3.1.47A6.19,6.19,0,0,0,8.55,3a5.29,5.29,0,0,0-1.33,2,6.63,6.63,0,0,0-.45,2.48A9.51,9.51,0,0,0,7.1,10a5.84,5.84,0,0,0,1.17,2.14A8.53,8.53,0,0,0,10.5,14a19.3,19.3,0,0,0,3.56,1.54,33.63,33.63,0,0,1,5,2.06,13.67,13.67,0,0,1,3.18,2.22,6.46,6.46,0,0,1,1.65,2.56,9.35,9.35,0,0,1,.47,3.08,5.94,5.94,0,0,1-.84,3.1,7.25,7.25,0,0,1-2.43,2.4,12.78,12.78,0,0,1-3.83,1.55,22,22,0,0,1-5.11.54q-6,0-9.06-3C1,28,0,25.13,0,21.5H5.6a2.45,2.45,0,0,0-1.45,1.11,4.48,4.48,0,0,0-.47,2.23,7.62,7.62,0,0,0,.49,2.71,6.32,6.32,0,0,0,1.47,2.24,7,7,0,0,0,2.5,1.52,10.45,10.45,0,0,0,3.59.56,7.7,7.7,0,0,0,5.39-1.82,6.87,6.87,0,0,0,2-5.36,9.44,9.44,0,0,0-.47-3.08,6.62,6.62,0,0,0-1.52-2.44,10.83,10.83,0,0,0-2.69-2,30.77,30.77,0,0,0-4-1.75,38.14,38.14,0,0,1-4.19-1.71A12.48,12.48,0,0,1,3.48,12a5.69,5.69,0,0,1-1.56-2,6,6,0,0,1-.49-2.47,6.11,6.11,0,0,1,.88-3.27A7.06,7.06,0,0,1,4.77,1.81,12.1,12.1,0,0,1,8.53.42,22.35,22.35,0,0,1,13.3,0a13.07,13.07,0,0,1,4.5.81,9.53,9.53,0,0,1,3.28,2.07,8.58,8.58,0,0,1,2,3.06,10.05,10.05,0,0,1,.7,3.76h-5.6a2.14,2.14,0,0,0,1.5-1.26,5.13,5.13,0,0,0,.42-2.09,4.36,4.36,0,0,0-.51-2.08,5.16,5.16,0,0,0-1.37-1.64,6.63,6.63,0,0,0-2-1A7.53,7.53,0,0,0,13.87,1.21Z"/><path class="cls-1" d="M33.41,16.8q.15,4,.4,7.69c.16,2.47.35,4.61.58,6.44a32.61,32.61,0,0,0,4.43-.41,21.72,21.72,0,0,0,3.74-1,16.56,16.56,0,0,0,3.14-1.5,20.87,20.87,0,0,0,2.71-2v6H30c-.3-1.25-.57-2.7-.81-4.34s-.44-3.39-.62-5.26-.32-3.79-.43-5.77-.2-3.93-.26-5.84-.1-3.75-.1-5.51,0-3.34.08-4.77H48.41v6a19.41,19.41,0,0,0-2.84-2.09,17.22,17.22,0,0,0-3.36-1.54,23.1,23.1,0,0,0-4-1,30.83,30.83,0,0,0-4.81-.34c-.07,2-.11,4.16-.11,6.62s0,5,.11,7.55h3.87a23,23,0,0,0,6.36-.81,19.08,19.08,0,0,0,4.81-2v6.73a18.72,18.72,0,0,0-4.81-2,23.86,23.86,0,0,0-6.36-.79Z"/><path class="cls-1" d="M62.61,16.8a23.83,23.83,0,0,0-6.35.79,18.57,18.57,0,0,0-4.81,2V12.89a18.92,18.92,0,0,0,4.81,2,23,23,0,0,0,6.35.81h3.87q.12-3.87.12-7.55c0-2.46,0-4.66-.12-6.62a31,31,0,0,0-4.81.34,23.21,23.21,0,0,0-4,1,16.69,16.69,0,0,0-3.36,1.54,18.89,18.89,0,0,0-2.84,2.09v-6H72c0,1.43.07,3,.07,4.77s0,3.59-.09,5.51-.15,3.86-.26,5.84-.26,3.9-.44,5.77-.38,3.62-.62,5.26-.5,3.09-.8,4.34H51.45v-6a19.59,19.59,0,0,0,2.71,2,16.47,16.47,0,0,0,3.13,1.5,22,22,0,0,0,3.74,1,32.91,32.91,0,0,0,4.44.41c.22-1.83.42-4,.58-6.44s.3-5,.4-7.69Z"/><path class="cls-1" d="M99.07.53q0,3.42.11,7.21c0,2.54.07,5,.07,7.56a35.25,35.25,0,0,1-.65,6.91,15.32,15.32,0,0,1-2.28,5.62A11.32,11.32,0,0,1,92,31.61,15.27,15.27,0,0,1,85,33a9.85,9.85,0,0,1-4.6-1,9.14,9.14,0,0,1-3.22-2.8,12.22,12.22,0,0,1-1.88-4.25,22.62,22.62,0,0,1-.6-5.36q0-5.86.38-10.8T76,.53h5.68c-.45,1-.95,2.14-1.51,3.55s-1.05,3-1.52,4.66-.86,3.48-1.18,5.36a32.44,32.44,0,0,0-.49,5.63,26.68,26.68,0,0,0,.43,5.06,11.49,11.49,0,0,0,1.39,3.81A6.62,6.62,0,0,0,81.25,31a7.77,7.77,0,0,0,3.76.84,6.9,6.9,0,0,0,4.08-1.16,8.37,8.37,0,0,0,2.63-3.22,17.09,17.09,0,0,0,1.43-4.86,41.62,41.62,0,0,0,.43-6.13q0-4-.08-8.17c0-2.77-.08-5.37-.11-7.8Z"/><path class="cls-1" d="M105.64,32c-.3-1.25-.57-2.7-.8-4.34s-.45-3.39-.63-5.26-.31-3.79-.43-5.77-.2-3.93-.26-5.84-.09-3.75-.09-5.51,0-3.34.07-4.77h5.68c1.27,1.35,2.5,2.74,3.66,4.15a55,55,0,0,1,3.31,4.47,52.24,52.24,0,0,1,2.91,5,53,53,0,0,1,2.48,5.58c.08-1.68.14-3.4.19-5.15s.08-3.46.09-5.11,0-3.24,0-4.76-.07-2.9-.15-4.15h5.6c0,1.4.08,3,.1,4.75s0,3.61-.08,5.53-.16,3.86-.28,5.84-.28,3.9-.45,5.77-.38,3.62-.62,5.26-.51,3.09-.81,4.34H120.6a61,61,0,0,0-1.5-8.08,70.32,70.32,0,0,0-2.58-8.08,63.15,63.15,0,0,0-3.44-7.48,45.52,45.52,0,0,0-4-6.27c0,1.45-.09,3-.1,4.75s0,3.49,0,5.32.08,3.68.15,5.54.16,3.67.26,5.4.22,3.35.36,4.88.29,2.87.47,4Z"/></g></g></svg>